<?xml version="1.0" encoding="UTF-8" standalone="no"?>
<!-- Created with Inkscape (http://www.inkscape.org/) -->

<svg
   width="30.00005"
   height="50.000084"
   viewBox="0 0 30.00005 50.000084"
   version="1.1"
   id="svg1"
   xmlns="http://www.w3.org/2000/svg"
   xmlns:svg="http://www.w3.org/2000/svg">
  <defs
     id="defs1" />
  <g
     id="layer1">
    <path
       id="rect1"
       style="fill:#fe0000;stroke:#000000;stroke-width:4.19605e-05;stroke-linecap:round"
       d="M 1.875023,3.8304552e-5 2.2982731e-5,3.1250383 1.875023,6.2500383 l 1.875,-3.125 z m 1.875,3.124999995448 1.875,3.125 1.875,-3.125 -1.875,-3.124999995448 z m 3.75,0 1.8749999,3.1249998 1.8750001,-3.1249999 -1.875,-3.124999895448 z m 3.75,-10e-8 1.875,3.125 1.875,-3.1249999 -1.875,-3.124999995448 z m 3.75,10e-8 1.875,3.1250001 1.875,-3.1250001 -1.875,-3.124999995448 z m 3.75,0 1.875,3.1250001 1.875,-3.1250001 -1.875,-3.124999995448 z m 3.75,0 1.875,3.1250001 1.875,-3.1250001 -1.875,-3.124999995448 z m 3.75,0 1.875,3.1250001 1.875,-3.1250001 -1.875,-3.124999995448 z m 1.875,3.1250001 -1.875,3.125 1.875,3.1249996 1.875,-3.1249996 z m 0,6.2499996 -1.875,3.125 1.875,3.125001 1.875,-3.125001 z m 0,6.250001 -1.875,3.125 1.875,3.125 1.875,-3.125 z m 0,6.25 -1.875,3.125 1.875,3.125 1.875,-3.125 z m 0,6.25 -1.875,3.125 1.875,3.125 1.875,-3.125001 z m 0,6.25 -1.875,3.125 1.875,3.124999 1.875,-3.125 z m 0,6.249999 -1.875,3.125001 1.875,3.124999 1.875,-3.125 z m -1.875,3.125001 -1.875,-3.125 -1.875,3.125 1.875,3.125 z m -3.75,0 -1.875,-3.125 -1.875,3.125 1.875,3.125 z m -3.75,0 -1.875,-3.125 -1.875,3.125 1.875,3.125 z m -3.75,0 -1.875,-3.125 -1.875,3.124999 1.875,3.125001 z m -3.75,-10e-7 -1.8749998,-3.125 -1.875,3.125 1.875,3.125 z m -3.7499998,0 -1.8750001,-3.125 -1.875,3.125 1.875,3.125 z m -3.7500001,0 -1.8750001,-3.125 -1.875000017269,3.125 1.875000017269,3.125 z m -1.8750001,-3.125 1.8750001,-3.125 -1.8750001,-3.125 -1.875000017269,3.125 z m 0,-6.25 1.8750001,-3.125 -1.8750001,-3.125 -1.875000017269,3.125 z m 0,-6.25 1.8750001,-3.125 -1.8750001,-3.125 -1.875000017269,3.125 z m 0,-6.25 1.8749998,-3.125 -1.875,-3.125 -1.874999817269,3.125 z m -2e-7,-6.25 1.875,-3.125 -1.8749998,-3.125 -1.875000017269,3.125 z m 2e-7,-6.25 1.875,-3.1249998 -1.875,-3.1249999 L 2.2982731e-5,9.3750382 Z M 3.750023,9.3750382 5.6250228,12.500038 7.5000229,9.3750381 5.625023,6.2500383 Z m 3.7499999,-1e-7 1.875,3.1249999 L 11.250023,9.3750382 9.3750229,6.2500381 Z m 3.7500001,1e-7 1.875,3.1249998 1.875,-3.1249998 -1.875,-3.125 z m 3.75,0 1.875,3.1249998 1.875,-3.1249996 -1.875,-3.125 z m 3.75,2e-7 1.875,3.1249996 1.875,-3.1249996 -1.875,-3.125 z m 3.75,0 1.875,3.1249996 1.875,-3.1249996 -1.875,-3.125 z m 1.875,3.1249996 -1.875,3.125 1.875,3.125001 1.875,-3.125001 z m 0,6.250001 -1.875,3.124999 1.875,3.125001 1.875,-3.125 z m 0,6.25 -1.875,3.125 1.875,3.125 1.875,-3.125 z m 0,6.25 -1.875,3.125 1.875,3.125 1.875,-3.125 z m 0,6.25 -1.875,3.125 1.875,3.125 1.875,-3.125 z m -1.875,3.125 -1.875,-3.125 -1.875,3.125 1.875,3.125 z m -3.75,0 -1.875,-3.125001 -1.875,3.125 1.875,3.125001 z m -3.75,-10e-7 -1.875,-3.125 -1.875,3.125001 1.875,3.125 z m -3.75,10e-7 -1.8749998,-3.125001 -1.875,3.125 1.875,3.125 z m -3.7499998,-10e-7 -1.8750001,-3.125 -1.875,3.125 1.875,3.125 z m -1.8750001,-3.125 1.8750001,-3.125 -1.8750001,-3.125 -1.875,3.125 z m 0,-6.25 1.8749998,-3.125 -1.875,-3.125 -1.8749998,3.125 z m -2e-7,-6.25 1.875,-3.125 -1.875,-3.125 -1.8750001,3.125 z m 0,-6.25 1.875,-3.125 -1.8750001,-3.125 -1.875,3.125 z m 1.875,-3.125 1.875,3.125 1.8750001,-3.125 -1.8750001,-3.125 z m 3.7500001,0 1.875,3.125 1.875,-3.125 -1.875,-3.125 z m 3.75,0 1.875,3.125 1.875,-3.125 -1.875,-3.125 z m 3.75,0 1.875,3.125 1.875,-3.125 -1.875,-3.125 z m 1.875,3.125 -1.875,3.125 1.875,3.125001 1.875,-3.125001 z m 0,6.250001 -1.875,3.124999 1.875,3.125 1.875,-3.124999 z m 0,6.249999 -1.875,3.125001 1.875,3.125 1.875,-3.125 z m -1.875,3.125001 -1.875,-3.125001 -1.875,3.125 1.875,3.125 z m -3.75,-10e-7 -1.875,-3.125 -1.875,3.125 1.875,3.125 z m -3.75,0 -1.875,-3.125 -1.8749998,3.125 1.875,3.125 z m -1.875,-3.125 1.875,-3.125 -1.8750001,-3.125 -1.875,3.125 z m -1e-7,-6.25 1.8750001,-3.125 -1.8750001,-3.125 -1.875,3.125 z m 1.8750001,-3.125 1.875,3.125 1.875,-3.125 -1.875,-3.125 z m 3.75,0 1.875,3.125 1.875,-3.125 -1.875,-3.125 z m 1.875,3.125 -1.875,3.125 1.875,3.125 1.875,-3.125 z m -1.875,3.125 -1.875,-3.125 -1.875,3.125 1.875,3.125 z" />
  </g>
</svg>
