<?xml version="1.0" encoding="UTF-8" standalone="no"?>
<!-- Created with Inkscape (http://www.inkscape.org/) -->

<svg
   width="27.47434mm"
   height="27.964693mm"
   viewBox="0 0 27.47434 27.964693"
   version="1.1"
   id="svg1"
   xmlns="http://www.w3.org/2000/svg"
   xmlns:svg="http://www.w3.org/2000/svg">
  <defs
     id="defs1" />
  <g
     id="layer1"
     transform="translate(-25.838572,-100.7042)">
    <path
       id="path45"
       style="font-variation-settings:normal;opacity:1;vector-effect:none;fill:#000000;fill-opacity:1;stroke:#000000;stroke-width:8.31104e-05;stroke-linecap:round;stroke-linejoin:miter;stroke-miterlimit:4;stroke-dasharray:none;stroke-dashoffset:0;stroke-opacity:1;-inkscape-stroke:none;stop-color:#000000;stop-opacity:1"
       d="m 39.575733,100.70424 c -3.793506,-7e-5 -6.868766,3.13077 -6.868692,6.99284 6.43e-4,1.01077 0.216519,2.0094 0.632752,2.92707 -0.210342,-0.0201 -0.421484,-0.0303 -0.632752,-0.0306 -3.793296,8e-5 -6.868351,3.1307 -6.868429,6.99256 -7.4e-5,3.86196 3.075026,6.99276 6.868429,6.99284 2.683736,-3.3e-4 5.121469,-1.59196 6.24126,-4.07499 -1.098449,4.88903 -3.476096,8.06315 -6.116099,8.16489 h 13.569363 c -2.67013,-0.0373 -5.08765,-3.22212 -6.19867,-8.16598 1.119518,2.48355 3.557454,4.07566 6.24154,4.07608 3.793405,-8e-5 6.868509,-3.13088 6.868435,-6.99284 -7.8e-5,-3.86186 -3.075137,-6.99248 -6.868435,-6.99256 -0.214445,0.005 -0.428527,0.0209 -0.641542,0.0466 0.421393,-0.92189 0.640235,-1.92625 0.641272,-2.94306 6.8e-5,-3.86197 -3.075032,-6.99275 -6.868432,-6.99283 z" />
  </g>
</svg>
