<?xml version="1.0" encoding="UTF-8" standalone="no"?>
<!-- Created with Inkscape (http://www.inkscape.org/) -->

<svg
   width="27.474344mm"
   height="27.964703mm"
   viewBox="0 0 27.474344 27.964703"
   version="1.1"
   id="svg1"
   xmlns="http://www.w3.org/2000/svg"
   xmlns:svg="http://www.w3.org/2000/svg">
  <defs
     id="defs1" />
  <path
     id="path46"
     style="font-variation-settings:normal;opacity:1;vector-effect:none;fill:#000000;fill-opacity:1;stroke:#000000;stroke-width:8.38583e-05;stroke-linecap:round;stroke-linejoin:miter;stroke-miterlimit:4;stroke-dasharray:none;stroke-dashoffset:0;stroke-opacity:1;-inkscape-stroke:none;stop-color:#000000;stop-opacity:1"
     d="M 13.737303,8.5437728e-5 C 8.7091296,8.8666354 5.9204376,7.9583094 2.0119986,11.937426 0.7690436,13.202856 3.9600701e-5,14.950929 3.9600701e-5,16.881922 c 0,3.861976 3.075246999299,6.992835 6.868635999299,6.992835 2.777546,0 5.1643154,-1.681909 6.2465324,-4.096961 -1.096131,4.901096 -3.4769594,8.085275 -6.1213674,8.186865 H 20.563059 c -2.674663,-0.037 -5.095538,-3.231953 -6.204191,-8.188219 1.081856,2.415765 3.468744,4.098315 6.2468,4.098315 3.793383,0 6.86863,-3.130859 6.86863,-6.992835 0,-1.930993 -0.768732,-3.679056 -2.011695,-4.944496 C 21.554169,7.9583094 18.765384,8.8664624 13.737303,8.5437728e-5 Z" />
</svg>
